G04 (created by PCBNEW-RS274X (2011-07-20 BZR 3052)-stable) date Sat 10 Sep 2011 12:05:51 AM CEST*
G01*
G70*
G90*
%MOIN*%
G04 Gerber Fmt 3.4, Leading zero omitted, Abs format*
%FSLAX34Y34*%
G04 APERTURE LIST*
%ADD10C,0.006000*%
%ADD11C,0.060000*%
%ADD12R,0.078700X0.017700*%
%ADD13R,0.017700X0.078700*%
%ADD14C,0.055000*%
%ADD15R,0.036000X0.036000*%
%ADD16R,0.080000X0.160000*%
%ADD17R,0.035000X0.055000*%
%ADD18R,0.055000X0.055000*%
%ADD19R,0.350000X0.350000*%
%ADD20C,0.070000*%
%ADD21R,0.070000X0.070000*%
%ADD22R,0.060000X0.060000*%
%ADD23C,0.190000*%
%ADD24C,0.200000*%
%ADD25R,0.220500X0.082700*%
%ADD26R,0.076800X0.098400*%
%ADD27R,0.051200X0.059000*%
G04 APERTURE END LIST*
G54D10*
G54D11*
X56300Y-27300D03*
X57300Y-27300D03*
X58300Y-27300D03*
G54D12*
X42404Y-34493D03*
X42404Y-34178D03*
X42404Y-33863D03*
X42404Y-33548D03*
X42404Y-33233D03*
X42404Y-32918D03*
X42404Y-32603D03*
X42404Y-32288D03*
X46170Y-32290D03*
X46170Y-34500D03*
X46170Y-34180D03*
X46170Y-33860D03*
X46170Y-33550D03*
X46170Y-33230D03*
X46170Y-32920D03*
X46170Y-32600D03*
G54D13*
X43188Y-31500D03*
X43502Y-31500D03*
X43818Y-31500D03*
X44132Y-31500D03*
X44448Y-31500D03*
X44762Y-31500D03*
X45078Y-31500D03*
X45392Y-31500D03*
X43190Y-35280D03*
X43500Y-35280D03*
X43820Y-35280D03*
X44130Y-35280D03*
X44440Y-35280D03*
X44760Y-35280D03*
X45080Y-35280D03*
X45400Y-35280D03*
G54D14*
X47300Y-27000D03*
X47300Y-29000D03*
X44300Y-27000D03*
X44300Y-29000D03*
G54D15*
X59250Y-32000D03*
X59950Y-32000D03*
X59600Y-32800D03*
X46450Y-23600D03*
X47150Y-23600D03*
X46800Y-24400D03*
X42450Y-24200D03*
X43150Y-24200D03*
X42800Y-25000D03*
G54D16*
X50200Y-24400D03*
X52400Y-24400D03*
X45600Y-21300D03*
X43400Y-21300D03*
X48700Y-29200D03*
X50900Y-29200D03*
G54D17*
X49625Y-21400D03*
X50375Y-21400D03*
X54325Y-21200D03*
X55075Y-21200D03*
X40525Y-26000D03*
X41275Y-26000D03*
G54D18*
X52400Y-28000D03*
X42900Y-26300D03*
X40100Y-23300D03*
G54D19*
X55200Y-32300D03*
G54D20*
X48700Y-31300D03*
G54D21*
X48700Y-32300D03*
G54D20*
X48700Y-33300D03*
G54D22*
X34300Y-20400D03*
G54D11*
X34300Y-19400D03*
X35300Y-20400D03*
X35300Y-19400D03*
X36300Y-20400D03*
X36300Y-19400D03*
X37300Y-20400D03*
X37300Y-19400D03*
X38300Y-20400D03*
X38300Y-19400D03*
G54D23*
X38100Y-32500D03*
X36800Y-30600D03*
G54D24*
X39300Y-30600D03*
G54D25*
X30991Y-26700D03*
X34809Y-26700D03*
G54D26*
X59200Y-21700D03*
X58000Y-21700D03*
X57300Y-23700D03*
X56100Y-23700D03*
X32400Y-23500D03*
X31200Y-23500D03*
G54D27*
X38275Y-24800D03*
X37525Y-24800D03*
X39675Y-26800D03*
X38925Y-26800D03*
M02*
