G04 (created by PCBNEW-RS274X (2011-07-20 BZR 3052)-stable) date Sat 10 Sep 2011 12:05:51 AM CEST*
G01*
G70*
G90*
%MOIN*%
G04 Gerber Fmt 3.4, Leading zero omitted, Abs format*
%FSLAX34Y34*%
G04 APERTURE LIST*
%ADD10C,0.006000*%
%ADD11C,0.015000*%
%ADD12C,0.005000*%
%ADD13C,0.008000*%
%ADD14C,0.012500*%
%ADD15C,0.012000*%
%ADD16C,0.007500*%
%ADD17C,0.010700*%
%ADD18C,0.004700*%
%ADD19C,0.002400*%
G04 APERTURE END LIST*
G54D10*
G54D11*
X56317Y-28284D02*
X56373Y-28368D01*
X56435Y-28446D01*
X56504Y-28519D01*
X56579Y-28585D01*
X56659Y-28644D01*
X56744Y-28697D01*
X56834Y-28741D01*
X56927Y-28778D01*
X57023Y-28806D01*
X57121Y-28826D01*
X57220Y-28838D01*
X57320Y-28840D01*
X57419Y-28834D01*
X57518Y-28819D01*
X57616Y-28796D01*
X57711Y-28764D01*
X57802Y-28724D01*
X57890Y-28677D01*
X56711Y-28678D02*
X56799Y-28725D01*
X56891Y-28765D01*
X56986Y-28797D01*
X57084Y-28820D01*
X57183Y-28834D01*
X57282Y-28840D01*
X57382Y-28838D01*
X57481Y-28826D01*
X57579Y-28806D01*
X57675Y-28777D01*
X57768Y-28741D01*
X57857Y-28696D01*
X57943Y-28643D01*
X58023Y-28584D01*
X58098Y-28517D01*
X58166Y-28444D01*
X58229Y-28366D01*
X58284Y-28283D01*
X56119Y-26709D02*
X58481Y-26709D01*
X58481Y-26709D02*
X58481Y-28284D01*
X58481Y-28284D02*
X56119Y-28284D01*
X56119Y-28284D02*
X56119Y-26709D01*
G54D10*
X46280Y-34490D02*
X45830Y-34490D01*
X46280Y-32310D02*
X45840Y-32310D01*
X46280Y-34490D02*
X46280Y-32310D01*
X45400Y-34960D02*
X45400Y-35390D01*
X43190Y-34970D02*
X43190Y-35390D01*
X43180Y-35390D02*
X45400Y-35400D01*
X43200Y-31420D02*
X45370Y-31410D01*
X42770Y-32110D02*
X42770Y-34940D01*
X45380Y-31420D02*
X45380Y-31830D01*
X43020Y-31870D02*
X45800Y-31870D01*
X45820Y-34950D02*
X45820Y-31910D01*
X42770Y-34950D02*
X45770Y-34950D01*
X42320Y-32280D02*
X42320Y-34500D01*
X42320Y-34500D02*
X42770Y-34500D01*
X42774Y-32100D02*
X43004Y-31870D01*
X42322Y-32280D02*
X42774Y-32280D01*
X43200Y-31870D02*
X43200Y-31418D01*
X43370Y-32274D02*
X43366Y-32310D01*
X43355Y-32345D01*
X43338Y-32378D01*
X43315Y-32406D01*
X43287Y-32429D01*
X43254Y-32447D01*
X43219Y-32458D01*
X43183Y-32461D01*
X43147Y-32458D01*
X43112Y-32448D01*
X43080Y-32431D01*
X43051Y-32408D01*
X43027Y-32380D01*
X43010Y-32348D01*
X42999Y-32313D01*
X42995Y-32276D01*
X42998Y-32241D01*
X43008Y-32205D01*
X43024Y-32173D01*
X43047Y-32144D01*
X43075Y-32120D01*
X43107Y-32102D01*
X43142Y-32091D01*
X43179Y-32087D01*
X43214Y-32089D01*
X43249Y-32099D01*
X43282Y-32116D01*
X43311Y-32138D01*
X43335Y-32166D01*
X43353Y-32198D01*
X43365Y-32233D01*
X43369Y-32269D01*
X43370Y-32274D01*
G54D12*
X46800Y-28000D02*
X46780Y-28194D01*
X46724Y-28381D01*
X46632Y-28553D01*
X46509Y-28704D01*
X46359Y-28829D01*
X46187Y-28921D01*
X46001Y-28979D01*
X45806Y-28999D01*
X45613Y-28982D01*
X45426Y-28927D01*
X45253Y-28836D01*
X45101Y-28714D01*
X44975Y-28564D01*
X44881Y-28393D01*
X44822Y-28207D01*
X44801Y-28013D01*
X44817Y-27820D01*
X44871Y-27632D01*
X44960Y-27459D01*
X45081Y-27306D01*
X45230Y-27179D01*
X45400Y-27084D01*
X45586Y-27024D01*
X45780Y-27001D01*
X45973Y-27016D01*
X46161Y-27068D01*
X46335Y-27156D01*
X46489Y-27276D01*
X46617Y-27424D01*
X46713Y-27594D01*
X46775Y-27779D01*
X46799Y-27973D01*
X46800Y-28000D01*
X44300Y-26500D02*
X47300Y-26500D01*
X47300Y-26500D02*
X47300Y-29500D01*
X47300Y-29500D02*
X44300Y-29500D01*
X44300Y-26500D02*
X44300Y-29500D01*
X59000Y-32250D02*
X60200Y-32250D01*
X60200Y-32250D02*
X60200Y-32550D01*
X60200Y-32550D02*
X59000Y-32550D01*
X59000Y-32550D02*
X59000Y-32250D01*
X46200Y-23850D02*
X47400Y-23850D01*
X47400Y-23850D02*
X47400Y-24150D01*
X47400Y-24150D02*
X46200Y-24150D01*
X46200Y-24150D02*
X46200Y-23850D01*
X42200Y-24450D02*
X43400Y-24450D01*
X43400Y-24450D02*
X43400Y-24750D01*
X43400Y-24750D02*
X42200Y-24750D01*
X42200Y-24750D02*
X42200Y-24450D01*
G54D13*
X52850Y-25250D02*
X51950Y-25250D01*
X51950Y-23550D02*
X52850Y-23550D01*
X50650Y-25250D02*
X49750Y-25250D01*
X49750Y-23550D02*
X50650Y-23550D01*
X49750Y-25250D02*
X49750Y-23550D01*
X52850Y-23550D02*
X52850Y-25250D01*
X42950Y-20450D02*
X43850Y-20450D01*
X43850Y-22150D02*
X42950Y-22150D01*
X45150Y-20450D02*
X46050Y-20450D01*
X46050Y-22150D02*
X45150Y-22150D01*
X46050Y-20450D02*
X46050Y-22150D01*
X42950Y-22150D02*
X42950Y-20450D01*
X51350Y-30050D02*
X50450Y-30050D01*
X50450Y-28350D02*
X51350Y-28350D01*
X49150Y-30050D02*
X48250Y-30050D01*
X48250Y-28350D02*
X49150Y-28350D01*
X48250Y-30050D02*
X48250Y-28350D01*
X51350Y-28350D02*
X51350Y-30050D01*
G54D12*
X49400Y-21700D02*
X49399Y-21709D01*
X49396Y-21719D01*
X49391Y-21727D01*
X49385Y-21735D01*
X49377Y-21741D01*
X49369Y-21746D01*
X49360Y-21748D01*
X49350Y-21749D01*
X49341Y-21749D01*
X49332Y-21746D01*
X49323Y-21741D01*
X49316Y-21735D01*
X49309Y-21728D01*
X49305Y-21719D01*
X49302Y-21710D01*
X49301Y-21700D01*
X49301Y-21691D01*
X49304Y-21682D01*
X49308Y-21673D01*
X49315Y-21666D01*
X49322Y-21659D01*
X49330Y-21655D01*
X49340Y-21652D01*
X49349Y-21651D01*
X49358Y-21651D01*
X49368Y-21654D01*
X49376Y-21658D01*
X49384Y-21664D01*
X49390Y-21672D01*
X49395Y-21680D01*
X49398Y-21689D01*
X49399Y-21699D01*
X49400Y-21700D01*
X49800Y-21700D02*
X49400Y-21700D01*
X49400Y-21700D02*
X49400Y-21100D01*
X49400Y-21100D02*
X49800Y-21100D01*
X50200Y-21100D02*
X50600Y-21100D01*
X50600Y-21100D02*
X50600Y-21700D01*
X50600Y-21700D02*
X50200Y-21700D01*
X54100Y-21500D02*
X54099Y-21509D01*
X54096Y-21519D01*
X54091Y-21527D01*
X54085Y-21535D01*
X54077Y-21541D01*
X54069Y-21546D01*
X54060Y-21548D01*
X54050Y-21549D01*
X54041Y-21549D01*
X54032Y-21546D01*
X54023Y-21541D01*
X54016Y-21535D01*
X54009Y-21528D01*
X54005Y-21519D01*
X54002Y-21510D01*
X54001Y-21500D01*
X54001Y-21491D01*
X54004Y-21482D01*
X54008Y-21473D01*
X54015Y-21466D01*
X54022Y-21459D01*
X54030Y-21455D01*
X54040Y-21452D01*
X54049Y-21451D01*
X54058Y-21451D01*
X54068Y-21454D01*
X54076Y-21458D01*
X54084Y-21464D01*
X54090Y-21472D01*
X54095Y-21480D01*
X54098Y-21489D01*
X54099Y-21499D01*
X54100Y-21500D01*
X54500Y-21500D02*
X54100Y-21500D01*
X54100Y-21500D02*
X54100Y-20900D01*
X54100Y-20900D02*
X54500Y-20900D01*
X54900Y-20900D02*
X55300Y-20900D01*
X55300Y-20900D02*
X55300Y-21500D01*
X55300Y-21500D02*
X54900Y-21500D01*
X40300Y-26300D02*
X40299Y-26309D01*
X40296Y-26319D01*
X40291Y-26327D01*
X40285Y-26335D01*
X40277Y-26341D01*
X40269Y-26346D01*
X40260Y-26348D01*
X40250Y-26349D01*
X40241Y-26349D01*
X40232Y-26346D01*
X40223Y-26341D01*
X40216Y-26335D01*
X40209Y-26328D01*
X40205Y-26319D01*
X40202Y-26310D01*
X40201Y-26300D01*
X40201Y-26291D01*
X40204Y-26282D01*
X40208Y-26273D01*
X40215Y-26266D01*
X40222Y-26259D01*
X40230Y-26255D01*
X40240Y-26252D01*
X40249Y-26251D01*
X40258Y-26251D01*
X40268Y-26254D01*
X40276Y-26258D01*
X40284Y-26264D01*
X40290Y-26272D01*
X40295Y-26280D01*
X40298Y-26289D01*
X40299Y-26299D01*
X40300Y-26300D01*
X40700Y-26300D02*
X40300Y-26300D01*
X40300Y-26300D02*
X40300Y-25700D01*
X40300Y-25700D02*
X40700Y-25700D01*
X41100Y-25700D02*
X41500Y-25700D01*
X41500Y-25700D02*
X41500Y-26300D01*
X41500Y-26300D02*
X41100Y-26300D01*
G54D14*
X51900Y-28500D02*
X52900Y-28500D01*
X51900Y-27500D02*
X52900Y-27500D01*
G54D15*
X51900Y-28500D02*
X51900Y-27500D01*
X52900Y-27500D02*
X52900Y-28500D01*
G54D14*
X42400Y-26800D02*
X43400Y-26800D01*
X42400Y-25800D02*
X43400Y-25800D01*
G54D15*
X42400Y-26800D02*
X42400Y-25800D01*
X43400Y-25800D02*
X43400Y-26800D01*
G54D14*
X39600Y-23800D02*
X40600Y-23800D01*
X39600Y-22800D02*
X40600Y-22800D01*
G54D15*
X39600Y-23800D02*
X39600Y-22800D01*
X40600Y-22800D02*
X40600Y-23800D01*
X48700Y-31300D02*
X50700Y-31300D01*
X48700Y-32300D02*
X50700Y-32300D01*
X48700Y-33300D02*
X50700Y-33300D01*
X50700Y-30800D02*
X50700Y-34300D01*
X50700Y-34300D02*
X56700Y-34300D01*
X56700Y-34300D02*
X56700Y-30300D01*
X50700Y-30800D02*
X50700Y-30300D01*
X53700Y-33800D02*
X53700Y-30300D01*
X53700Y-33800D02*
X53700Y-34300D01*
X50700Y-30300D02*
X56700Y-30300D01*
G54D11*
X35300Y-21600D02*
X37400Y-21600D01*
X37300Y-21600D02*
X40100Y-21600D01*
X40100Y-21600D02*
X40100Y-18200D01*
X40100Y-18200D02*
X32500Y-18200D01*
X32500Y-18200D02*
X32500Y-21600D01*
X32500Y-21600D02*
X35300Y-21600D01*
G54D15*
X32800Y-21300D02*
X32800Y-18500D01*
X39800Y-21300D02*
X39800Y-18500D01*
X35300Y-21600D02*
X35300Y-21300D01*
X35300Y-21300D02*
X32800Y-21300D01*
X32800Y-18500D02*
X39800Y-18500D01*
X39800Y-21300D02*
X37300Y-21300D01*
X37300Y-21300D02*
X37300Y-21600D01*
X33700Y-20400D02*
X33200Y-20100D01*
X33200Y-20100D02*
X33200Y-20700D01*
X33200Y-20700D02*
X33700Y-20400D01*
G54D13*
X35050Y-28850D02*
X35050Y-32350D01*
X39550Y-28850D02*
X39550Y-32350D01*
X39550Y-32350D02*
X33800Y-32350D01*
X39550Y-28850D02*
X33800Y-28850D01*
X33800Y-28850D02*
X33800Y-32350D01*
G54D11*
X30597Y-27684D02*
X35203Y-27684D01*
X35203Y-25716D02*
X30597Y-25716D01*
X35203Y-27684D02*
X35203Y-27350D01*
X35203Y-25716D02*
X35203Y-26050D01*
X30597Y-27684D02*
X30597Y-27350D01*
X30597Y-25716D02*
X30597Y-26050D01*
G54D12*
X59075Y-21150D02*
X59075Y-22250D01*
X59300Y-21150D02*
X57900Y-21150D01*
X57900Y-21150D02*
X57900Y-22250D01*
X57900Y-22250D02*
X59300Y-22250D01*
X59300Y-22250D02*
X59300Y-21150D01*
X57175Y-23150D02*
X57175Y-24250D01*
X57400Y-23150D02*
X56000Y-23150D01*
X56000Y-23150D02*
X56000Y-24250D01*
X56000Y-24250D02*
X57400Y-24250D01*
X57400Y-24250D02*
X57400Y-23150D01*
X32275Y-22950D02*
X32275Y-24050D01*
X32500Y-22950D02*
X31100Y-22950D01*
X31100Y-22950D02*
X31100Y-24050D01*
X31100Y-24050D02*
X32500Y-24050D01*
X32500Y-24050D02*
X32500Y-22950D01*
X38150Y-24550D02*
X38150Y-25050D01*
X37650Y-24550D02*
X37650Y-25040D01*
X37500Y-24550D02*
X38300Y-24550D01*
X38300Y-24550D02*
X38300Y-25050D01*
X38300Y-25050D02*
X37500Y-25050D01*
X37500Y-25050D02*
X37500Y-24550D01*
X39550Y-26550D02*
X39550Y-27050D01*
X39050Y-26550D02*
X39050Y-27040D01*
X38900Y-26550D02*
X39700Y-26550D01*
X39700Y-26550D02*
X39700Y-27050D01*
X39700Y-27050D02*
X38900Y-27050D01*
X38900Y-27050D02*
X38900Y-26550D01*
G54D15*
X56843Y-26156D02*
X56843Y-26642D01*
X56871Y-26699D01*
X56900Y-26727D01*
X56957Y-26756D01*
X57071Y-26756D01*
X57129Y-26727D01*
X57157Y-26699D01*
X57186Y-26642D01*
X57186Y-26156D01*
X57443Y-26213D02*
X57472Y-26184D01*
X57529Y-26156D01*
X57672Y-26156D01*
X57729Y-26184D01*
X57758Y-26213D01*
X57786Y-26270D01*
X57786Y-26327D01*
X57758Y-26413D01*
X57415Y-26756D01*
X57786Y-26756D01*
X54801Y-25368D02*
X55144Y-25368D01*
X54973Y-25968D02*
X54973Y-25368D01*
X55315Y-25939D02*
X55401Y-25968D01*
X55544Y-25968D01*
X55601Y-25939D01*
X55630Y-25911D01*
X55658Y-25854D01*
X55658Y-25796D01*
X55630Y-25739D01*
X55601Y-25711D01*
X55544Y-25682D01*
X55430Y-25654D01*
X55372Y-25625D01*
X55344Y-25596D01*
X55315Y-25539D01*
X55315Y-25482D01*
X55344Y-25425D01*
X55372Y-25396D01*
X55430Y-25368D01*
X55572Y-25368D01*
X55658Y-25396D01*
X55886Y-25939D02*
X55972Y-25968D01*
X56115Y-25968D01*
X56172Y-25939D01*
X56201Y-25911D01*
X56229Y-25854D01*
X56229Y-25796D01*
X56201Y-25739D01*
X56172Y-25711D01*
X56115Y-25682D01*
X56001Y-25654D01*
X55943Y-25625D01*
X55915Y-25596D01*
X55886Y-25539D01*
X55886Y-25482D01*
X55915Y-25425D01*
X55943Y-25396D01*
X56001Y-25368D01*
X56143Y-25368D01*
X56229Y-25396D01*
X56600Y-25368D02*
X56714Y-25368D01*
X56772Y-25396D01*
X56829Y-25454D01*
X56857Y-25568D01*
X56857Y-25768D01*
X56829Y-25882D01*
X56772Y-25939D01*
X56714Y-25968D01*
X56600Y-25968D01*
X56543Y-25939D01*
X56486Y-25882D01*
X56457Y-25768D01*
X56457Y-25568D01*
X56486Y-25454D01*
X56543Y-25396D01*
X56600Y-25368D01*
X57115Y-25968D02*
X57115Y-25368D01*
X57343Y-25368D01*
X57401Y-25396D01*
X57429Y-25425D01*
X57458Y-25482D01*
X57458Y-25568D01*
X57429Y-25625D01*
X57401Y-25654D01*
X57343Y-25682D01*
X57115Y-25682D01*
X57686Y-25425D02*
X57715Y-25396D01*
X57772Y-25368D01*
X57915Y-25368D01*
X57972Y-25396D01*
X58001Y-25425D01*
X58029Y-25482D01*
X58029Y-25539D01*
X58001Y-25625D01*
X57658Y-25968D01*
X58029Y-25968D01*
X58257Y-25425D02*
X58286Y-25396D01*
X58343Y-25368D01*
X58486Y-25368D01*
X58543Y-25396D01*
X58572Y-25425D01*
X58600Y-25482D01*
X58600Y-25539D01*
X58572Y-25625D01*
X58229Y-25968D01*
X58600Y-25968D01*
X58800Y-25368D02*
X59171Y-25368D01*
X58971Y-25596D01*
X59057Y-25596D01*
X59114Y-25625D01*
X59143Y-25654D01*
X59171Y-25711D01*
X59171Y-25854D01*
X59143Y-25911D01*
X59114Y-25939D01*
X59057Y-25968D01*
X58885Y-25968D01*
X58828Y-25939D01*
X58800Y-25911D01*
X59685Y-25368D02*
X59571Y-25368D01*
X59514Y-25396D01*
X59485Y-25425D01*
X59428Y-25511D01*
X59399Y-25625D01*
X59399Y-25854D01*
X59428Y-25911D01*
X59456Y-25939D01*
X59514Y-25968D01*
X59628Y-25968D01*
X59685Y-25939D01*
X59714Y-25911D01*
X59742Y-25854D01*
X59742Y-25711D01*
X59714Y-25654D01*
X59685Y-25625D01*
X59628Y-25596D01*
X59514Y-25596D01*
X59456Y-25625D01*
X59428Y-25654D01*
X59399Y-25711D01*
G54D13*
X43910Y-33102D02*
X43910Y-32602D01*
X44329Y-33055D02*
X44310Y-33079D01*
X44253Y-33102D01*
X44215Y-33102D01*
X44157Y-33079D01*
X44119Y-33031D01*
X44100Y-32983D01*
X44081Y-32888D01*
X44081Y-32817D01*
X44100Y-32721D01*
X44119Y-32674D01*
X44157Y-32626D01*
X44215Y-32602D01*
X44253Y-32602D01*
X44310Y-32626D01*
X44329Y-32650D01*
X44710Y-33102D02*
X44481Y-33102D01*
X44595Y-33102D02*
X44595Y-32602D01*
X44557Y-32674D01*
X44519Y-32721D01*
X44481Y-32745D01*
X42567Y-34210D02*
X42758Y-34210D01*
X42529Y-34352D02*
X42662Y-33852D01*
X42796Y-34352D01*
X42872Y-33852D02*
X43101Y-33852D01*
X42986Y-34352D02*
X42986Y-33852D01*
X43234Y-34352D02*
X43234Y-33852D01*
X43368Y-34210D01*
X43501Y-33852D01*
X43501Y-34352D01*
X43691Y-34090D02*
X43825Y-34090D01*
X43882Y-34352D02*
X43691Y-34352D01*
X43691Y-33852D01*
X43882Y-33852D01*
X44263Y-33876D02*
X44225Y-33852D01*
X44168Y-33852D01*
X44110Y-33876D01*
X44072Y-33924D01*
X44053Y-33971D01*
X44034Y-34067D01*
X44034Y-34138D01*
X44053Y-34233D01*
X44072Y-34281D01*
X44110Y-34329D01*
X44168Y-34352D01*
X44206Y-34352D01*
X44263Y-34329D01*
X44282Y-34305D01*
X44282Y-34138D01*
X44206Y-34138D01*
X44434Y-34210D02*
X44625Y-34210D01*
X44396Y-34352D02*
X44529Y-33852D01*
X44663Y-34352D01*
X44853Y-34067D02*
X44815Y-34043D01*
X44796Y-34019D01*
X44777Y-33971D01*
X44777Y-33948D01*
X44796Y-33900D01*
X44815Y-33876D01*
X44853Y-33852D01*
X44930Y-33852D01*
X44968Y-33876D01*
X44987Y-33900D01*
X45006Y-33948D01*
X45006Y-33971D01*
X44987Y-34019D01*
X44968Y-34043D01*
X44930Y-34067D01*
X44853Y-34067D01*
X44815Y-34090D01*
X44796Y-34114D01*
X44777Y-34162D01*
X44777Y-34257D01*
X44796Y-34305D01*
X44815Y-34329D01*
X44853Y-34352D01*
X44930Y-34352D01*
X44968Y-34329D01*
X44987Y-34305D01*
X45006Y-34257D01*
X45006Y-34162D01*
X44987Y-34114D01*
X44968Y-34090D01*
X44930Y-34067D01*
X45177Y-34162D02*
X45482Y-34162D01*
X45653Y-34210D02*
X45844Y-34210D01*
X45615Y-34352D02*
X45748Y-33852D01*
X45882Y-34352D01*
X46015Y-34352D02*
X46015Y-33852D01*
X45267Y-27843D02*
X45324Y-27862D01*
X45420Y-27862D01*
X45458Y-27843D01*
X45477Y-27824D01*
X45496Y-27786D01*
X45496Y-27748D01*
X45477Y-27710D01*
X45458Y-27690D01*
X45420Y-27671D01*
X45343Y-27652D01*
X45305Y-27633D01*
X45286Y-27614D01*
X45267Y-27576D01*
X45267Y-27538D01*
X45286Y-27500D01*
X45305Y-27481D01*
X45343Y-27462D01*
X45439Y-27462D01*
X45496Y-27481D01*
X45629Y-27462D02*
X45724Y-27862D01*
X45801Y-27576D01*
X45877Y-27862D01*
X45972Y-27462D01*
X46334Y-27862D02*
X46105Y-27862D01*
X46219Y-27862D02*
X46219Y-27462D01*
X46181Y-27519D01*
X46143Y-27557D01*
X46105Y-27576D01*
X43428Y-28543D02*
X43485Y-28562D01*
X43581Y-28562D01*
X43619Y-28543D01*
X43638Y-28524D01*
X43657Y-28486D01*
X43657Y-28448D01*
X43638Y-28410D01*
X43619Y-28390D01*
X43581Y-28371D01*
X43504Y-28352D01*
X43466Y-28333D01*
X43447Y-28314D01*
X43428Y-28276D01*
X43428Y-28238D01*
X43447Y-28200D01*
X43466Y-28181D01*
X43504Y-28162D01*
X43600Y-28162D01*
X43657Y-28181D01*
X43790Y-28162D02*
X43885Y-28562D01*
X43962Y-28276D01*
X44038Y-28562D01*
X44133Y-28162D01*
X44190Y-28600D02*
X44495Y-28600D01*
X44590Y-28562D02*
X44590Y-28162D01*
X44743Y-28162D01*
X44781Y-28181D01*
X44800Y-28200D01*
X44819Y-28238D01*
X44819Y-28295D01*
X44800Y-28333D01*
X44781Y-28352D01*
X44743Y-28371D01*
X44590Y-28371D01*
X44990Y-28162D02*
X44990Y-28486D01*
X45009Y-28524D01*
X45028Y-28543D01*
X45066Y-28562D01*
X45143Y-28562D01*
X45181Y-28543D01*
X45200Y-28524D01*
X45219Y-28486D01*
X45219Y-28162D01*
X45390Y-28543D02*
X45447Y-28562D01*
X45543Y-28562D01*
X45581Y-28543D01*
X45600Y-28524D01*
X45619Y-28486D01*
X45619Y-28448D01*
X45600Y-28410D01*
X45581Y-28390D01*
X45543Y-28371D01*
X45466Y-28352D01*
X45428Y-28333D01*
X45409Y-28314D01*
X45390Y-28276D01*
X45390Y-28238D01*
X45409Y-28200D01*
X45428Y-28181D01*
X45466Y-28162D01*
X45562Y-28162D01*
X45619Y-28181D01*
X45790Y-28562D02*
X45790Y-28162D01*
X45790Y-28352D02*
X46019Y-28352D01*
X46019Y-28562D02*
X46019Y-28162D01*
X46114Y-28600D02*
X46419Y-28600D01*
X46495Y-28543D02*
X46552Y-28562D01*
X46648Y-28562D01*
X46686Y-28543D01*
X46705Y-28524D01*
X46724Y-28486D01*
X46724Y-28448D01*
X46705Y-28410D01*
X46686Y-28390D01*
X46648Y-28371D01*
X46571Y-28352D01*
X46533Y-28333D01*
X46514Y-28314D01*
X46495Y-28276D01*
X46495Y-28238D01*
X46514Y-28200D01*
X46533Y-28181D01*
X46571Y-28162D01*
X46667Y-28162D01*
X46724Y-28181D01*
X46895Y-28562D02*
X46895Y-28162D01*
X47029Y-28448D01*
X47162Y-28162D01*
X47162Y-28562D01*
X47333Y-28448D02*
X47524Y-28448D01*
X47295Y-28562D02*
X47428Y-28162D01*
X47562Y-28562D01*
X47886Y-28562D02*
X47695Y-28562D01*
X47695Y-28162D01*
X48210Y-28562D02*
X48019Y-28562D01*
X48019Y-28162D01*
G54D16*
X59571Y-31700D02*
X59543Y-31686D01*
X59514Y-31657D01*
X59471Y-31614D01*
X59443Y-31600D01*
X59414Y-31600D01*
X59429Y-31671D02*
X59400Y-31657D01*
X59371Y-31629D01*
X59357Y-31571D01*
X59357Y-31471D01*
X59371Y-31414D01*
X59400Y-31386D01*
X59429Y-31371D01*
X59486Y-31371D01*
X59514Y-31386D01*
X59543Y-31414D01*
X59557Y-31471D01*
X59557Y-31571D01*
X59543Y-31629D01*
X59514Y-31657D01*
X59486Y-31671D01*
X59429Y-31671D01*
X59657Y-31371D02*
X59843Y-31371D01*
X59743Y-31486D01*
X59785Y-31486D01*
X59814Y-31500D01*
X59828Y-31514D01*
X59843Y-31543D01*
X59843Y-31614D01*
X59828Y-31643D01*
X59814Y-31657D01*
X59785Y-31671D01*
X59700Y-31671D01*
X59671Y-31657D01*
X59657Y-31643D01*
X58928Y-32521D02*
X58928Y-32221D01*
X59028Y-32436D01*
X59128Y-32221D01*
X59128Y-32521D01*
X59329Y-32221D02*
X59386Y-32221D01*
X59414Y-32236D01*
X59443Y-32264D01*
X59457Y-32321D01*
X59457Y-32421D01*
X59443Y-32479D01*
X59414Y-32507D01*
X59386Y-32521D01*
X59329Y-32521D01*
X59300Y-32507D01*
X59271Y-32479D01*
X59257Y-32421D01*
X59257Y-32321D01*
X59271Y-32264D01*
X59300Y-32236D01*
X59329Y-32221D01*
X59571Y-32507D02*
X59614Y-32521D01*
X59685Y-32521D01*
X59714Y-32507D01*
X59728Y-32493D01*
X59743Y-32464D01*
X59743Y-32436D01*
X59728Y-32407D01*
X59714Y-32393D01*
X59685Y-32379D01*
X59628Y-32364D01*
X59600Y-32350D01*
X59585Y-32336D01*
X59571Y-32307D01*
X59571Y-32279D01*
X59585Y-32250D01*
X59600Y-32236D01*
X59628Y-32221D01*
X59700Y-32221D01*
X59743Y-32236D01*
X59800Y-32550D02*
X60029Y-32550D01*
X60100Y-32521D02*
X60100Y-32221D01*
X60272Y-32521D01*
X60272Y-32221D01*
X46771Y-23300D02*
X46743Y-23286D01*
X46714Y-23257D01*
X46671Y-23214D01*
X46643Y-23200D01*
X46614Y-23200D01*
X46629Y-23271D02*
X46600Y-23257D01*
X46571Y-23229D01*
X46557Y-23171D01*
X46557Y-23071D01*
X46571Y-23014D01*
X46600Y-22986D01*
X46629Y-22971D01*
X46686Y-22971D01*
X46714Y-22986D01*
X46743Y-23014D01*
X46757Y-23071D01*
X46757Y-23171D01*
X46743Y-23229D01*
X46714Y-23257D01*
X46686Y-23271D01*
X46629Y-23271D01*
X47043Y-23271D02*
X46871Y-23271D01*
X46957Y-23271D02*
X46957Y-22971D01*
X46928Y-23014D01*
X46900Y-23043D01*
X46871Y-23057D01*
X46128Y-24121D02*
X46128Y-23821D01*
X46228Y-24036D01*
X46328Y-23821D01*
X46328Y-24121D01*
X46529Y-23821D02*
X46586Y-23821D01*
X46614Y-23836D01*
X46643Y-23864D01*
X46657Y-23921D01*
X46657Y-24021D01*
X46643Y-24079D01*
X46614Y-24107D01*
X46586Y-24121D01*
X46529Y-24121D01*
X46500Y-24107D01*
X46471Y-24079D01*
X46457Y-24021D01*
X46457Y-23921D01*
X46471Y-23864D01*
X46500Y-23836D01*
X46529Y-23821D01*
X46771Y-24107D02*
X46814Y-24121D01*
X46885Y-24121D01*
X46914Y-24107D01*
X46928Y-24093D01*
X46943Y-24064D01*
X46943Y-24036D01*
X46928Y-24007D01*
X46914Y-23993D01*
X46885Y-23979D01*
X46828Y-23964D01*
X46800Y-23950D01*
X46785Y-23936D01*
X46771Y-23907D01*
X46771Y-23879D01*
X46785Y-23850D01*
X46800Y-23836D01*
X46828Y-23821D01*
X46900Y-23821D01*
X46943Y-23836D01*
X47000Y-24150D02*
X47229Y-24150D01*
X47300Y-24121D02*
X47300Y-23821D01*
X47472Y-24121D01*
X47472Y-23821D01*
X42771Y-23900D02*
X42743Y-23886D01*
X42714Y-23857D01*
X42671Y-23814D01*
X42643Y-23800D01*
X42614Y-23800D01*
X42629Y-23871D02*
X42600Y-23857D01*
X42571Y-23829D01*
X42557Y-23771D01*
X42557Y-23671D01*
X42571Y-23614D01*
X42600Y-23586D01*
X42629Y-23571D01*
X42686Y-23571D01*
X42714Y-23586D01*
X42743Y-23614D01*
X42757Y-23671D01*
X42757Y-23771D01*
X42743Y-23829D01*
X42714Y-23857D01*
X42686Y-23871D01*
X42629Y-23871D01*
X42871Y-23600D02*
X42885Y-23586D01*
X42914Y-23571D01*
X42985Y-23571D01*
X43014Y-23586D01*
X43028Y-23600D01*
X43043Y-23629D01*
X43043Y-23657D01*
X43028Y-23700D01*
X42857Y-23871D01*
X43043Y-23871D01*
X42128Y-24721D02*
X42128Y-24421D01*
X42228Y-24636D01*
X42328Y-24421D01*
X42328Y-24721D01*
X42529Y-24421D02*
X42586Y-24421D01*
X42614Y-24436D01*
X42643Y-24464D01*
X42657Y-24521D01*
X42657Y-24621D01*
X42643Y-24679D01*
X42614Y-24707D01*
X42586Y-24721D01*
X42529Y-24721D01*
X42500Y-24707D01*
X42471Y-24679D01*
X42457Y-24621D01*
X42457Y-24521D01*
X42471Y-24464D01*
X42500Y-24436D01*
X42529Y-24421D01*
X42771Y-24707D02*
X42814Y-24721D01*
X42885Y-24721D01*
X42914Y-24707D01*
X42928Y-24693D01*
X42943Y-24664D01*
X42943Y-24636D01*
X42928Y-24607D01*
X42914Y-24593D01*
X42885Y-24579D01*
X42828Y-24564D01*
X42800Y-24550D01*
X42785Y-24536D01*
X42771Y-24507D01*
X42771Y-24479D01*
X42785Y-24450D01*
X42800Y-24436D01*
X42828Y-24421D01*
X42900Y-24421D01*
X42943Y-24436D01*
X43000Y-24750D02*
X43229Y-24750D01*
X43300Y-24721D02*
X43300Y-24421D01*
X43472Y-24721D01*
X43472Y-24421D01*
G54D10*
X51142Y-24458D02*
X50975Y-24574D01*
X51142Y-24658D02*
X50792Y-24658D01*
X50792Y-24524D01*
X50808Y-24491D01*
X50825Y-24474D01*
X50858Y-24458D01*
X50908Y-24458D01*
X50942Y-24474D01*
X50958Y-24491D01*
X50975Y-24524D01*
X50975Y-24658D01*
X50792Y-24341D02*
X50792Y-24124D01*
X50925Y-24241D01*
X50925Y-24191D01*
X50942Y-24158D01*
X50958Y-24141D01*
X50992Y-24124D01*
X51075Y-24124D01*
X51108Y-24141D01*
X51125Y-24158D01*
X51142Y-24191D01*
X51142Y-24291D01*
X51125Y-24324D01*
X51108Y-24341D01*
X51792Y-24292D02*
X51625Y-24408D01*
X51792Y-24492D02*
X51442Y-24492D01*
X51442Y-24358D01*
X51458Y-24325D01*
X51475Y-24308D01*
X51508Y-24292D01*
X51558Y-24292D01*
X51592Y-24308D01*
X51608Y-24325D01*
X51625Y-24358D01*
X51625Y-24492D01*
X44942Y-21358D02*
X44775Y-21474D01*
X44942Y-21558D02*
X44592Y-21558D01*
X44592Y-21424D01*
X44608Y-21391D01*
X44625Y-21374D01*
X44658Y-21358D01*
X44708Y-21358D01*
X44742Y-21374D01*
X44758Y-21391D01*
X44775Y-21424D01*
X44775Y-21558D01*
X44625Y-21224D02*
X44608Y-21208D01*
X44592Y-21174D01*
X44592Y-21091D01*
X44608Y-21058D01*
X44625Y-21041D01*
X44658Y-21024D01*
X44692Y-21024D01*
X44742Y-21041D01*
X44942Y-21241D01*
X44942Y-21024D01*
X44292Y-21192D02*
X44125Y-21308D01*
X44292Y-21392D02*
X43942Y-21392D01*
X43942Y-21258D01*
X43958Y-21225D01*
X43975Y-21208D01*
X44008Y-21192D01*
X44058Y-21192D01*
X44092Y-21208D01*
X44108Y-21225D01*
X44125Y-21258D01*
X44125Y-21392D01*
X49642Y-29258D02*
X49475Y-29374D01*
X49642Y-29458D02*
X49292Y-29458D01*
X49292Y-29324D01*
X49308Y-29291D01*
X49325Y-29274D01*
X49358Y-29258D01*
X49408Y-29258D01*
X49442Y-29274D01*
X49458Y-29291D01*
X49475Y-29324D01*
X49475Y-29458D01*
X49642Y-28924D02*
X49642Y-29124D01*
X49642Y-29024D02*
X49292Y-29024D01*
X49342Y-29058D01*
X49375Y-29091D01*
X49392Y-29124D01*
X50292Y-29092D02*
X50125Y-29208D01*
X50292Y-29292D02*
X49942Y-29292D01*
X49942Y-29158D01*
X49958Y-29125D01*
X49975Y-29108D01*
X50008Y-29092D01*
X50058Y-29092D01*
X50092Y-29108D01*
X50108Y-29125D01*
X50125Y-29158D01*
X50125Y-29292D01*
G54D12*
X49958Y-21501D02*
X49875Y-21382D01*
X49816Y-21501D02*
X49816Y-21251D01*
X49911Y-21251D01*
X49935Y-21263D01*
X49946Y-21275D01*
X49958Y-21299D01*
X49958Y-21335D01*
X49946Y-21358D01*
X49935Y-21370D01*
X49911Y-21382D01*
X49816Y-21382D01*
X50185Y-21251D02*
X50066Y-21251D01*
X50054Y-21370D01*
X50066Y-21358D01*
X50089Y-21346D01*
X50149Y-21346D01*
X50173Y-21358D01*
X50185Y-21370D01*
X50196Y-21394D01*
X50196Y-21454D01*
X50185Y-21477D01*
X50173Y-21489D01*
X50149Y-21501D01*
X50089Y-21501D01*
X50066Y-21489D01*
X50054Y-21477D01*
X54658Y-21301D02*
X54575Y-21182D01*
X54516Y-21301D02*
X54516Y-21051D01*
X54611Y-21051D01*
X54635Y-21063D01*
X54646Y-21075D01*
X54658Y-21099D01*
X54658Y-21135D01*
X54646Y-21158D01*
X54635Y-21170D01*
X54611Y-21182D01*
X54516Y-21182D01*
X54873Y-21051D02*
X54825Y-21051D01*
X54801Y-21063D01*
X54789Y-21075D01*
X54766Y-21111D01*
X54754Y-21158D01*
X54754Y-21254D01*
X54766Y-21277D01*
X54777Y-21289D01*
X54801Y-21301D01*
X54849Y-21301D01*
X54873Y-21289D01*
X54885Y-21277D01*
X54896Y-21254D01*
X54896Y-21194D01*
X54885Y-21170D01*
X54873Y-21158D01*
X54849Y-21146D01*
X54801Y-21146D01*
X54777Y-21158D01*
X54766Y-21170D01*
X54754Y-21194D01*
X40858Y-26101D02*
X40775Y-25982D01*
X40716Y-26101D02*
X40716Y-25851D01*
X40811Y-25851D01*
X40835Y-25863D01*
X40846Y-25875D01*
X40858Y-25899D01*
X40858Y-25935D01*
X40846Y-25958D01*
X40835Y-25970D01*
X40811Y-25982D01*
X40716Y-25982D01*
X41073Y-25935D02*
X41073Y-26101D01*
X41013Y-25839D02*
X40954Y-26018D01*
X41108Y-26018D01*
G54D17*
X52084Y-27275D02*
X52084Y-26594D01*
X52247Y-26594D01*
X52288Y-26627D01*
X52308Y-26659D01*
X52328Y-26724D01*
X52328Y-26821D01*
X52308Y-26886D01*
X52288Y-26918D01*
X52247Y-26951D01*
X52084Y-26951D01*
X52492Y-26659D02*
X52512Y-26627D01*
X52553Y-26594D01*
X52655Y-26594D01*
X52695Y-26627D01*
X52716Y-26659D01*
X52736Y-26724D01*
X52736Y-26789D01*
X52716Y-26886D01*
X52471Y-27275D01*
X52736Y-27275D01*
X42584Y-25575D02*
X42584Y-24894D01*
X42747Y-24894D01*
X42788Y-24927D01*
X42808Y-24959D01*
X42828Y-25024D01*
X42828Y-25121D01*
X42808Y-25186D01*
X42788Y-25218D01*
X42747Y-25251D01*
X42584Y-25251D01*
X42971Y-24894D02*
X43236Y-24894D01*
X43093Y-25154D01*
X43155Y-25154D01*
X43195Y-25186D01*
X43216Y-25218D01*
X43236Y-25283D01*
X43236Y-25445D01*
X43216Y-25510D01*
X43195Y-25543D01*
X43155Y-25575D01*
X43032Y-25575D01*
X42992Y-25543D01*
X42971Y-25510D01*
X39784Y-22575D02*
X39784Y-21894D01*
X39947Y-21894D01*
X39988Y-21927D01*
X40008Y-21959D01*
X40028Y-22024D01*
X40028Y-22121D01*
X40008Y-22186D01*
X39988Y-22218D01*
X39947Y-22251D01*
X39784Y-22251D01*
X40436Y-22575D02*
X40192Y-22575D01*
X40314Y-22575D02*
X40314Y-21894D01*
X40273Y-21991D01*
X40232Y-22056D01*
X40192Y-22089D01*
G54D13*
X51343Y-32605D02*
X51829Y-32605D01*
X51886Y-32586D01*
X51914Y-32567D01*
X51943Y-32529D01*
X51943Y-32452D01*
X51914Y-32414D01*
X51886Y-32395D01*
X51829Y-32376D01*
X51343Y-32376D01*
X51943Y-31976D02*
X51943Y-32205D01*
X51943Y-32091D02*
X51343Y-32091D01*
X51429Y-32129D01*
X51486Y-32167D01*
X51514Y-32205D01*
X52543Y-33055D02*
X52543Y-32788D01*
X53143Y-32960D01*
X52800Y-32579D02*
X52771Y-32617D01*
X52743Y-32636D01*
X52686Y-32655D01*
X52657Y-32655D01*
X52600Y-32636D01*
X52571Y-32617D01*
X52543Y-32579D01*
X52543Y-32502D01*
X52571Y-32464D01*
X52600Y-32445D01*
X52657Y-32426D01*
X52686Y-32426D01*
X52743Y-32445D01*
X52771Y-32464D01*
X52800Y-32502D01*
X52800Y-32579D01*
X52829Y-32617D01*
X52857Y-32636D01*
X52914Y-32655D01*
X53029Y-32655D01*
X53086Y-32636D01*
X53114Y-32617D01*
X53143Y-32579D01*
X53143Y-32502D01*
X53114Y-32464D01*
X53086Y-32445D01*
X53029Y-32426D01*
X52914Y-32426D01*
X52857Y-32445D01*
X52829Y-32464D01*
X52800Y-32502D01*
X52543Y-32179D02*
X52543Y-32140D01*
X52571Y-32102D01*
X52600Y-32083D01*
X52657Y-32064D01*
X52771Y-32045D01*
X52914Y-32045D01*
X53029Y-32064D01*
X53086Y-32083D01*
X53114Y-32102D01*
X53143Y-32140D01*
X53143Y-32179D01*
X53114Y-32217D01*
X53086Y-32236D01*
X53029Y-32255D01*
X52914Y-32274D01*
X52771Y-32274D01*
X52657Y-32255D01*
X52600Y-32236D01*
X52571Y-32217D01*
X52543Y-32179D01*
X52543Y-31683D02*
X52543Y-31874D01*
X52829Y-31893D01*
X52800Y-31874D01*
X52771Y-31836D01*
X52771Y-31740D01*
X52800Y-31702D01*
X52829Y-31683D01*
X52886Y-31664D01*
X53029Y-31664D01*
X53086Y-31683D01*
X53114Y-31702D01*
X53143Y-31740D01*
X53143Y-31836D01*
X53114Y-31874D01*
X53086Y-31893D01*
G54D15*
X33667Y-17183D02*
X33667Y-17683D01*
X33633Y-17783D01*
X33567Y-17850D01*
X33467Y-17883D01*
X33400Y-17883D01*
X33966Y-17250D02*
X34000Y-17217D01*
X34066Y-17183D01*
X34233Y-17183D01*
X34300Y-17217D01*
X34333Y-17250D01*
X34366Y-17317D01*
X34366Y-17383D01*
X34333Y-17483D01*
X33933Y-17883D01*
X34366Y-17883D01*
X35499Y-22283D02*
X35833Y-22283D01*
X35433Y-22483D02*
X35666Y-21783D01*
X35899Y-22483D01*
X36033Y-21783D02*
X36266Y-22483D01*
X36499Y-21783D01*
X37133Y-22483D02*
X36899Y-22150D01*
X36733Y-22483D02*
X36733Y-21783D01*
X36999Y-21783D01*
X37066Y-21817D01*
X37099Y-21850D01*
X37133Y-21917D01*
X37133Y-22017D01*
X37099Y-22083D01*
X37066Y-22117D01*
X36999Y-22150D01*
X36733Y-22150D01*
X37433Y-22217D02*
X37966Y-22217D01*
X38300Y-22483D02*
X38300Y-21783D01*
X38599Y-22450D02*
X38699Y-22483D01*
X38866Y-22483D01*
X38933Y-22450D01*
X38966Y-22417D01*
X38999Y-22350D01*
X38999Y-22283D01*
X38966Y-22217D01*
X38933Y-22183D01*
X38866Y-22150D01*
X38733Y-22117D01*
X38666Y-22083D01*
X38633Y-22050D01*
X38599Y-21983D01*
X38599Y-21917D01*
X38633Y-21850D01*
X38666Y-21817D01*
X38733Y-21783D01*
X38899Y-21783D01*
X38999Y-21817D01*
X39300Y-22483D02*
X39300Y-21783D01*
X39566Y-21783D01*
X39633Y-21817D01*
X39666Y-21850D01*
X39700Y-21917D01*
X39700Y-22017D01*
X39666Y-22083D01*
X39633Y-22117D01*
X39566Y-22150D01*
X39300Y-22150D01*
X40000Y-22217D02*
X40533Y-22217D01*
X41233Y-22483D02*
X40833Y-22483D01*
X41033Y-22483D02*
X41033Y-21783D01*
X40967Y-21883D01*
X40900Y-21950D01*
X40833Y-21983D01*
X41667Y-21783D02*
X41734Y-21783D01*
X41800Y-21817D01*
X41834Y-21850D01*
X41867Y-21917D01*
X41900Y-22050D01*
X41900Y-22217D01*
X41867Y-22350D01*
X41834Y-22417D01*
X41800Y-22450D01*
X41734Y-22483D01*
X41667Y-22483D01*
X41600Y-22450D01*
X41567Y-22417D01*
X41534Y-22350D01*
X41500Y-22217D01*
X41500Y-22050D01*
X41534Y-21917D01*
X41567Y-21850D01*
X41600Y-21817D01*
X41667Y-21783D01*
G54D13*
X36667Y-28262D02*
X36667Y-28548D01*
X36647Y-28605D01*
X36609Y-28643D01*
X36552Y-28662D01*
X36514Y-28662D01*
X37067Y-28662D02*
X36838Y-28662D01*
X36952Y-28662D02*
X36952Y-28262D01*
X36914Y-28319D01*
X36876Y-28357D01*
X36838Y-28376D01*
G54D15*
X32415Y-24343D02*
X32815Y-24943D01*
X32815Y-24343D02*
X32415Y-24943D01*
X33357Y-24943D02*
X33014Y-24943D01*
X33186Y-24943D02*
X33186Y-24343D01*
X33129Y-24429D01*
X33071Y-24486D01*
X33014Y-24514D01*
X32886Y-28943D02*
X32543Y-28943D01*
X32715Y-28943D02*
X32715Y-28343D01*
X32658Y-28429D01*
X32600Y-28486D01*
X32543Y-28514D01*
X33400Y-28343D02*
X33286Y-28343D01*
X33229Y-28371D01*
X33200Y-28400D01*
X33143Y-28486D01*
X33114Y-28600D01*
X33114Y-28829D01*
X33143Y-28886D01*
X33171Y-28914D01*
X33229Y-28943D01*
X33343Y-28943D01*
X33400Y-28914D01*
X33429Y-28886D01*
X33457Y-28829D01*
X33457Y-28686D01*
X33429Y-28629D01*
X33400Y-28600D01*
X33343Y-28571D01*
X33229Y-28571D01*
X33171Y-28600D01*
X33143Y-28629D01*
X33114Y-28686D01*
X33714Y-28943D02*
X33714Y-28343D01*
X33914Y-28771D01*
X34114Y-28343D01*
X34114Y-28943D01*
X34400Y-28943D02*
X34400Y-28343D01*
X34400Y-28629D02*
X34743Y-28629D01*
X34743Y-28943D02*
X34743Y-28343D01*
X34972Y-28543D02*
X35286Y-28543D01*
X34972Y-28943D01*
X35286Y-28943D01*
G54D18*
X58567Y-20985D02*
X58558Y-20995D01*
X58530Y-21004D01*
X58511Y-21004D01*
X58483Y-20995D01*
X58464Y-20976D01*
X58455Y-20957D01*
X58446Y-20920D01*
X58446Y-20892D01*
X58455Y-20854D01*
X58464Y-20835D01*
X58483Y-20817D01*
X58511Y-20807D01*
X58530Y-20807D01*
X58558Y-20817D01*
X58567Y-20826D01*
X58746Y-20807D02*
X58652Y-20807D01*
X58643Y-20901D01*
X58652Y-20892D01*
X58671Y-20882D01*
X58718Y-20882D01*
X58736Y-20892D01*
X58746Y-20901D01*
X58755Y-20920D01*
X58755Y-20967D01*
X58746Y-20985D01*
X58736Y-20995D01*
X58718Y-21004D01*
X58671Y-21004D01*
X58652Y-20995D01*
X58643Y-20985D01*
X56667Y-22985D02*
X56658Y-22995D01*
X56630Y-23004D01*
X56611Y-23004D01*
X56583Y-22995D01*
X56564Y-22976D01*
X56555Y-22957D01*
X56546Y-22920D01*
X56546Y-22892D01*
X56555Y-22854D01*
X56564Y-22835D01*
X56583Y-22817D01*
X56611Y-22807D01*
X56630Y-22807D01*
X56658Y-22817D01*
X56667Y-22826D01*
X56743Y-22826D02*
X56752Y-22817D01*
X56771Y-22807D01*
X56818Y-22807D01*
X56836Y-22817D01*
X56846Y-22826D01*
X56855Y-22845D01*
X56855Y-22864D01*
X56846Y-22892D01*
X56733Y-23004D01*
X56855Y-23004D01*
X31767Y-22785D02*
X31758Y-22795D01*
X31730Y-22804D01*
X31711Y-22804D01*
X31683Y-22795D01*
X31664Y-22776D01*
X31655Y-22757D01*
X31646Y-22720D01*
X31646Y-22692D01*
X31655Y-22654D01*
X31664Y-22635D01*
X31683Y-22617D01*
X31711Y-22607D01*
X31730Y-22607D01*
X31758Y-22617D01*
X31767Y-22626D01*
X31955Y-22804D02*
X31843Y-22804D01*
X31899Y-22804D02*
X31899Y-22607D01*
X31880Y-22635D01*
X31861Y-22654D01*
X31843Y-22664D01*
G54D19*
X37881Y-24447D02*
X37875Y-24452D01*
X37858Y-24458D01*
X37847Y-24458D01*
X37830Y-24452D01*
X37819Y-24441D01*
X37813Y-24430D01*
X37807Y-24407D01*
X37807Y-24390D01*
X37813Y-24368D01*
X37819Y-24357D01*
X37830Y-24345D01*
X37847Y-24340D01*
X37858Y-24340D01*
X37875Y-24345D01*
X37881Y-24351D01*
X37982Y-24379D02*
X37982Y-24458D01*
X37954Y-24334D02*
X37925Y-24418D01*
X37999Y-24418D01*
X39281Y-26447D02*
X39275Y-26452D01*
X39258Y-26458D01*
X39247Y-26458D01*
X39230Y-26452D01*
X39219Y-26441D01*
X39213Y-26430D01*
X39207Y-26407D01*
X39207Y-26390D01*
X39213Y-26368D01*
X39219Y-26357D01*
X39230Y-26345D01*
X39247Y-26340D01*
X39258Y-26340D01*
X39275Y-26345D01*
X39281Y-26351D01*
X39320Y-26340D02*
X39393Y-26340D01*
X39354Y-26385D01*
X39370Y-26385D01*
X39382Y-26390D01*
X39387Y-26396D01*
X39393Y-26407D01*
X39393Y-26435D01*
X39387Y-26447D01*
X39382Y-26452D01*
X39370Y-26458D01*
X39337Y-26458D01*
X39325Y-26452D01*
X39320Y-26447D01*
M02*
